<?xml version="1.0" encoding="UTF-8" standalone="no"?>
<svg viewBox="0 0 112.759 135.213"
  xmlns="http://www.w3.org/2000/svg">
  <defs id="defs1" />
  <g id="layer1">
    <path style="fill:#000000" d="m 20.71756,135.1506 c -6.273824,-0.77696 -10.533107,-2.7507 -14.4212825,-6.68278 -2.649122,-2.67904 -3.948329,-4.79296 -5.046408,-8.21093 -1.202458,-3.74287 -1.468231,-7.08823 -1.090054,-13.72082 0.753477,-13.214738 3.324233,-22.552588 8.217788,-29.849788 1.535186,-2.28925 4.2469175,-5.21201 6.1222485,-6.59869 3.865281,-2.85811 9.088674,-4.58561 14.094792,-4.66149 2.912249,-0.0441 3.342003,0.13758 9.056248,3.82941 7.206142,4.65571 12.171379,6.3303 18.785416,6.33562 3.833395,0.003 6.208294,-0.40561 9.878019,-1.69993 3.08629,-1.08853 4.77657,-1.9693 9.30427,-4.84823 5.72778,-3.642 5.77494,-3.6617 8.65937,-3.61738 7.21036,0.11079 14.04384,3.36016 18.366313,8.7333 4.37613,5.43985 6.96616,11.45997 8.66944,20.15078 1.12102,5.719878 1.43302,9.148578 1.44459,15.874988 0.0101,5.90071 -0.0415,6.6722 -0.5753,8.59896 -1.9736,7.1233 -6.8108,12.44854 -13.519683,14.88373 -4.33484,1.57346 -1.936,1.48402 -41.168686,1.53489 -19.790832,0.0257 -36.340519,0.002 -36.777081,-0.0516 z M 49.027975,64.408282 c -4.773388,-0.9783 -8.754721,-2.74253 -12.573941,-5.57184 -6.785491,-5.02674 -11.290971,-12.0482 -12.878683,-20.07047 -0.68201,-3.44601 -0.60277,-9.94875 0.162436,-13.33011 2.84207,-12.558812 12.615208,-22.1975736 25.290188,-24.94246457 3.184723,-0.689682 10.039621,-0.649616 13.361458,0.0781 9.791264,2.14496697 17.931214,8.46645997 22.455464,17.43894557 2.29469,4.550823 3.22743,8.743753 3.22983,14.519023 0.004,9.25814 -2.93175,16.32274 -9.52059,22.91158 -5.01201,5.01201 -9.97628,7.71709 -16.504815,8.99363 -3.470034,0.6785 -9.643013,0.66599 -13.021347,-0.0264 z" id="path2" />
  </g>
</svg>
