<?xml version="1.0" encoding="UTF-8" standalone="no"?>
<svg viewBox="0 0 118.442 105.626"
  xmlns="http://www.w3.org/2000/svg">
  <defs id="defs1" />
  <g id="layer1">
    <path style="fill:#000000" d="M 13.493749,105.30614 C 7.318021,103.91955 2.718834,99.828466 0.724774,93.947826 L 0,91.810416 v -39.02604 -39.02604 l 0.736149,-2.17342 C 1.564774,9.138456 3.542842,5.989836 5.180826,4.510016 6.967937,2.895466 9.352262,1.494051 11.62092,0.724774 L 13.758333,0 H 55.29791 c 40.02305,0 41.57339,0.01801 42.46563,0.493226 2.3796,1.267417 3.5523,3.15721 3.5523,5.72448 0,2.56728 -1.1727,4.45707 -3.5523,5.72448 -0.88878,0.47338 -2.56019,0.49855 -41.53958,0.62552 -38.796715,0.12638 -40.649052,0.15401 -41.407294,0.61765 -1.421658,0.86929 -1.852083,1.70958 -1.852083,3.61569 0,1.9061 0.430425,2.74639 1.852083,3.61568 0.759877,0.46464 2.809173,0.491 48.021874,0.61765 l 47.22812,0.13229 1.52191,0.61453 c 2.86286,1.15599 4.89937,3.21777 6.08919,6.16474 0.52298,1.29532 0.58296,1.99645 0.66939,7.82461 l 0.0949,6.4018 -12.52209,0.0976 c -13.85862,0.10801 -13.62567,0.0823 -17.67934,1.95197 -5.48412,2.52944 -9.86743,7.78809 -11.54802,13.85412 -0.6631,2.39346 -0.66535,8.17582 -0.004,10.58334 1.64807,6.00051 6.0998,11.33934 11.55213,13.85412 4.05367,1.86968 3.82072,1.84396 17.67934,1.95197 l 12.52209,0.0976 -0.0949,6.4018 c -0.0864,5.82816 -0.14641,6.52929 -0.66939,7.82461 -1.18982,2.946974 -3.22633,5.008754 -6.08919,6.164744 l -1.52191,0.61453 -47.4927,0.0469 c -38.988684,0.0385 -47.776968,-0.0169 -49.080211,-0.30952 z M 94.03789,75.582656 c -4.7669,-1.24438 -8.45406,-5.33164 -9.28875,-10.29672 -1.04267,-6.20221 3.10967,-12.52016 9.28875,-14.13318 1.50971,-0.3941 3.24545,-0.45657 13.05221,-0.4698 l 11.31094,-0.01525 v 12.7 12.7 l -11.31094,-0.0153 c -9.80676,-0.0132 -11.5425,-0.0757 -13.05221,-0.4698 z" id="path1" />
  </g>
</svg>
