<?xml version="1.0" encoding="UTF-8" standalone="no"?>
<svg viewBox="0 0 135.455 101.48"
  xmlns="http://www.w3.org/2000/svg">
  <defs id="defs1" />
  <g id="layer1">
    <path style="fill:#000000" d="m 19.380417,100.99962 c -1.201222,-0.54529 -2.08331,-1.711322 -2.346012,-3.101182 -0.348282,-1.84264 0.160698,-2.53443 6.72322,-9.13799 3.430605,-3.45206 6.184535,-6.32203 6.119843,-6.37772 -0.06469,-0.0557 -1.367779,-0.93733 -2.895747,-1.95921 C 18.576703,74.802388 10.904496,67.444048 4.8382136,59.185888 1.4804326,54.614868 0.01116563,52.029438 3.2626243e-5,50.672298 -0.00806737,49.685408 1.4927426,46.911218 3.7299026,43.777768 15.167372,27.757978 30.482929,16.319268 47.026894,11.440598 54.117369,9.3496885 59.964326,8.5373685 67.859843,8.5462685 c 9.95299,0.0112 18.76656,1.7249595 27.23126,5.2949095 1.16678,0.49209 2.24128,0.89471 2.38777,0.89471 0.14649,0 3.483857,-3.20407 7.416367,-7.1201595 6.02117,-5.996031 7.32755,-7.17226504 8.27449,-7.45021204 3.07223,-0.901757 6.00931,2.03344504 5.11479,5.11151204 -0.28883,0.99388 -5.78683,6.5900195 -47.336147,48.1811395 -32.72178,32.7547 -47.33102,47.207522 -48.067694,47.553042 -1.338512,0.6278 -2.097299,0.62528 -3.500262,-0.0116 z m 22.35079,-30.238212 5.351937,-5.35782 -0.539712,-0.79375 c -2.80843,-4.13033 -4.490643,-10.46288 -4.111964,-15.47916 0.703104,-9.31386 5.972338,-17.12495 14.279374,-21.16766 8.000821,-3.89369 17.549931,-3.29198 24.918901,1.57019 l 0.80532,0.53136 4.32996,-4.33593 4.32996,-4.33593 -0.97915,-0.40911 c -3.16131,-1.32088 -8.33981,-2.69295 -13.26016,-3.51335 -4.08704,-0.68146 -14.10251,-0.67931 -18.256246,0.004 -11.898569,1.95711 -21.814008,6.31968 -31.485415,13.85289 -5.887055,4.58552 -12.872665,11.96996 -16.911165,17.87667 l -1.0361654,1.5155 0.9598364,1.39364 c 3.606475,5.23644 10.833144,12.93988 16.061453,17.12109 2.472724,1.9775 9.624336,6.88527 10.033231,6.88527 0.08694,0 2.566439,-2.41102 5.510005,-5.35781 z m 23.075476,-23.07444 c 6.32315,-6.32441 11.43639,-11.55917 11.36275,-11.63281 -0.0736,-0.0736 -0.82636,-0.44013 -1.67271,-0.81443 -9.525,-4.2124 -20.576853,1.22629 -23.180745,11.40742 -0.581293,2.27283 -0.672306,5.17781 -0.228715,7.30019 0.321001,1.53585 1.768487,5.23855 2.047891,5.23855 0.09619,0 5.348376,-5.17452 11.671529,-11.49892 z m -2.967874,45.09768 c -4.637685,-0.41772 -14.15944,-2.26621 -14.810191,-2.87515 -0.106549,-0.0997 1.332677,-1.70429 3.198281,-3.56575 l 3.392008,-3.38448 1.961093,0.39861 c 4.459254,0.9064 6.591464,1.09557 12.279843,1.08951 6.58832,-0.007 9.93848,-0.40441 15.61042,-1.85169 8.95156,-2.28412 17.582737,-6.67409 25.532287,-12.98616 4.91473,-3.90239 12.81103,-12.34541 16.2497,-17.37482 l 1.03617,-1.5155 -0.95984,-1.39364 c -3.58339,-5.20292 -11.0747,-13.20977 -16.14747,-17.2587 l -2.59956,-2.07489 3.04495,-3.04495 3.04495,-3.04494 2.20044,1.78858 c 6.81893,5.54262 12.92907,12.2502 17.90941,19.66056 1.86804,2.77948 2.6654,4.3943 2.67377,5.4149 0.0174,2.11756 -5.81122,10.39246 -11.97753,17.00462 -11.23928,12.0519 -25.749907,20.49346 -40.679187,23.66512 -6.06586,1.28866 -15.14232,1.87274 -20.959544,1.34877 z m 1.831174,-17.04939 c -1.140254,-0.20182 -2.120123,-0.41387 -2.177485,-0.47123 -0.05736,-0.0574 1.649485,-1.83664 3.792985,-3.95394 3.82032,-3.77363 3.92403,-3.85265 5.25201,-4.00165 3.65789,-0.41039 8.05296,-3.0677 10.60996,-6.41488 1.557,-2.03817 2.92958,-5.22755 3.16932,-7.3644 0.14902,-1.32817 0.22766,-1.43132 4.01101,-5.26145 3.08698,-3.12514 3.89318,-3.81326 4.02985,-3.43958 0.094,0.25692 0.32105,1.53094 0.50465,2.83114 1.07713,7.62816 -2.04645,16.21853 -7.85095,21.5914 -3.07838,2.84948 -7.25834,5.11125 -11.22654,6.07468 -2.9002,0.70412 -7.41807,0.88721 -10.11481,0.40991 z" id="path1" />
  </g>
</svg>
