<?xml version="1.0" encoding="UTF-8" standalone="no"?>
<svg viewBox="0 0 135.455 101.48"
  xmlns="http://www.w3.org/2000/svg">
  <defs id="defs1" />
  <g id="layer1">
    <path style="fill:#000000" d="M 62.958648,93.098771 C 45.312603,91.579901 30.609742,85.130721 17.067915,72.969501 9.7269274,66.376941 0.51869939,54.617391 0.07107039,51.263341 -0.09795761,49.996821 1.0208924,47.765861 3.7234994,43.980481 12.528981,31.647151 23.142578,22.393981 35.628657,16.164821 54.986054,6.50766 77.990369,6.13073 97.745679,15.147031 c 12.326491,5.6258 23.544891,14.88066 32.427401,26.75171 3.3031,4.41443 5.00884,7.2633 5.19815,8.68178 0.10656,0.79846 -0.059,1.37253 -0.81234,2.81652 -3.2507,6.231 -12.64386,16.98363 -19.8742,22.75058 -11.64694,9.28963 -23.797221,14.60805 -37.581291,16.45006 -3.04615,0.40707 -11.68256,0.71302 -14.144751,0.50109 z m 11.906251,-8.72057 c 10.59112,-1.21498 20.44663,-4.95811 29.633331,-11.25477 7.43811,-5.09815 15.00918,-12.62349 20.58293,-20.45863 0.6121,-0.86044 1.1129,-1.65562 1.1129,-1.76706 0,-0.33697 -3.91564,-5.50588 -6.09485,-8.0456 -2.46929,-2.8778 -7.85227,-8.13855 -10.5739,-10.33381 -13.359551,-10.77575 -27.907031,-15.8851 -43.788541,-15.37935 -14.830456,0.47228 -28.11703,5.68808 -40.481244,15.89137 -2.83991,2.34357 -8.416489,7.92856 -10.863743,10.88012 -1.957173,2.36049 -5.1435476,6.71782 -5.1435476,7.03374 0,0.1125 0.9116146,1.43343 2.0258096,2.9354 7.68375,10.35795 17.226056,18.60542 27.678898,23.92305 7.485206,3.80792 15.845511,6.23093 23.476539,6.80406 3.282858,0.24656 9.249948,0.13691 12.435418,-0.22852 z m -10.63256,-8.32296 c -4.49482,-0.71473 -9.329709,-2.84954 -12.581215,-5.55514 -4.078081,-3.39339 -7.350163,-8.58805 -8.582342,-13.62505 -0.82048,-3.35402 -0.820742,-8.56348 -5.97e-4,-11.8737 0.978634,-3.94991 3.159987,-8.09047 5.827127,-11.06083 3.107231,-3.46048 8.267045,-6.53383 12.872711,-7.66739 3.349746,-0.82445 8.555546,-0.82627 11.873706,-0.004 3.94991,0.97863 8.09047,3.15998 11.06083,5.82712 3.46048,3.10724 6.53383,8.26705 7.66739,12.87272 0.82616,3.3567 0.82616,8.54954 0,11.90624 -0.70833,2.87794 -2.69675,7.05137 -4.47514,9.39271 -3.40289,4.48006 -8.67659,7.93958 -14.11642,9.2603 -2.54194,0.61714 -7.32066,0.88105 -9.54605,0.52718 z m 7.56088,-8.72174 c 6.06565,-1.55133 10.78817,-6.27385 12.3395,-12.3395 2.28397,-8.9302 -3.28014,-18.16665 -12.3395,-20.48364 -8.930205,-2.28397 -18.166652,3.28014 -20.483645,12.3395 -2.270637,8.8781 3.251613,18.11759 12.235265,20.4713 2.55498,0.6694 5.66114,0.67405 8.24838,0.0123 z" id="path1" />
  </g>
</svg>
