<?xml version="1.0" encoding="UTF-8" standalone="no"?>
<svg viewBox="0 0 135.24699 135.358"
  xmlns="http://www.w3.org/2000/svg">
  <defs id="defs1" />
  <g id="layer1">
    <path style="fill:#000000" d="m 25.986556,135.00731 c -4.792412,-1.05442 -8.812156,-4.56437 -10.652782,-9.30177 l -0.707179,-1.82013 -0.07487,-21.89427 -0.07487,-21.894262 h -1.542666 c -6.5818102,0 -11.6900942,-4.21535 -12.7749752,-10.54189 -0.4120846,-2.4031 -0.02174,-4.94109 1.141977,-7.42508 0.765062,-1.63305 2.678884,-3.60619 29.9577962,-30.886333 C 58.55606,3.94526 60.509867,2.050109 62.144,1.285774 c 3.666999,-1.71516597 7.403399,-1.71436397 11.063099,0.0024 1.63042,0.764815 3.61803,2.68923 30.395011,29.428624 15.7578,15.73567 29.0619,29.20562 29.56468,29.93322 1.44971,2.09797 2.05989,4.11609 2.07992,6.87917 0.0299,4.12157 -1.61537,7.53763 -4.79779,9.96166 -2.18347,1.66315 -4.12863,2.35353 -7.14474,2.53585 l -2.44739,0.14794 v 21.085472 c 0,20.16752 -0.0229,21.17488 -0.52529,23.13933 -0.28891,1.12962 -0.90555,2.72625 -1.37031,3.54805 -1.21104,2.14141 -3.9557,4.75396 -6.09978,5.80619 -3.21566,1.5781 -4.17811,1.66496 -17.537915,1.58271 -11.646836,-0.0717 -12.020736,-0.0899 -12.729656,-0.61939 -0.40171,-0.30003 -0.97587,-0.87418 -1.2759,-1.27589 -0.53495,-0.71624 -0.54808,-1.07195 -0.67781,-18.37219 l -0.13229,-17.641822 -0.71449,-1.21536 c -0.86987,-1.47967 -2.24323,-2.56768 -3.85239,-3.05196 -1.74317,-0.52462 -14.818304,-0.51539 -16.569662,0.0117 -1.652037,0.49719 -2.900364,1.4867 -3.794534,3.00783 l -0.733503,1.2478 -0.132292,17.462502 c -0.127726,16.85994 -0.150551,17.4935 -0.661458,18.36089 -0.291042,0.49411 -0.865199,1.14895 -1.275905,1.4552 -0.731498,0.54546 -0.996109,0.55783 -12.964583,0.60576 -9.358719,0.0375 -12.593345,-0.0337 -13.822466,-0.30411 z" id="path1" />
  </g>
</svg>
