<?xml version="1.0" encoding="utf-8"?>
<svg viewBox="0 0 200 50"
	xmlns="http://www.w3.org/2000/svg">
	<g id="tony" transform="matrix(0.97579402,0,0,1.0057545,-2.3015383,-32.171692)">
		<path fill="black" id="background" d="M 2.3586313,32.81107 V 45.030776 H 16.952361 V 82.299063 H 31.261175 V 45.030776 H 45.853846 V 32.81107 Z m 69.8705867,0 c -7.517686,0 -13.382226,2.175952 -17.59382,6.528497 -4.211589,4.352548 -6.31793,10.435162 -6.31793,18.247978 0,5.593024 1.063888,10.250602 3.19074,13.972028 2.126855,3.72143 4.895657,6.441877 8.307046,8.161133 3.432448,1.719253 7.760365,2.578869 12.982737,2.578869 5.138141,0 9.423193,-0.990253 12.855637,-2.970661 3.453506,-2.00217 6.085635,-4.787941 7.896618,-8.357029 1.832043,-3.590849 2.748009,-8.182601 2.748009,-13.77562 0,-7.704002 -2.084379,-13.688896 -6.253851,-17.95439 C 85.874928,34.954619 79.936431,32.81107 72.229218,32.81107 Z m 31.871392,0 v 49.487993 h 13.45565 V 55.12427 L 134.898,82.299063 h 13.48796 V 32.81107 H 134.898 V 60.187896 L 117.462,32.81107 Z m 50.42428,0 c 3.97403,10.490728 8.09277,20.926151 12.11157,31.399596 -0.6831,3.521855 -3.23159,16.859885 -3.4873,18.088909 l 16.40543,-0.0087 3.32314,-17.845957 24.44239,-31.49422 c -12.55527,-0.109123 -16.57437,0.02967 -16.57437,0.02967 0,0 -5.95153,7.98785 -7.22934,10.139527 -1.34521,2.265138 -1.46968,3.180575 -0.50046,3.678034 0.25294,0.12982 1.94792,0.376636 3.76693,0.548815 2.7842,0.26353 3.38084,0.399483 3.77063,0.859282 0.25466,0.30041 0.46286,0.717559 0.46286,0.927309 0,0.425389 0.48212,-0.09696 -15.17363,16.440417 -6.24062,6.592054 -11.39325,11.93902 -11.45065,11.88162 -0.15675,-0.156752 9.42735,-20.689205 9.42235,-21.468752 -0.002,-0.300339 -0.0919,-0.684043 -0.19913,-0.852633 -0.22566,-0.354649 -2.16722,-0.873339 -6.27291,-1.675088 -1.5974,-0.31193 -3.05581,-0.692755 -3.24105,-0.846495 -0.18524,-0.15373 -0.33682,-0.56188 -0.33682,-0.906849 0,-0.34497 1.83696,-4.157175 4.08203,-8.4716 l 4.0815,-7.844017 -0.47874,-1.219874 -0.47875,-1.219362 z M 72.197443,44.007821 c 3.011286,0 5.390975,1.044599 7.138785,3.133822 1.76887,2.067458 2.653212,5.35333 2.653212,9.858215 0,5.353628 -0.842007,9.064844 -2.526642,11.132305 -1.684635,2.067459 -4.06432,3.101087 -7.138784,3.101087 -2.990229,0 -5.3592,-1.055572 -7.10701,-3.166556 -1.726752,-2.110983 -2.590192,-5.582354 -2.590192,-10.413679 0,-4.874851 0.87363,-8.367653 2.621438,-10.478637 1.747809,-2.110984 4.064254,-3.166557 6.949193,-3.166557 z" transform="matrix(1,0,0,1.0045559,0,-0.97293452)" />
		<path fill="#02d13e" id="foreground" d="m 171.92327,35.394661 3.37929,8.51253 -2.29184,4.7006 c 0,0 -0.72496,0.88867 0.23386,1.12254 0.95883,0.23386 7.81868,1.613013 7.81868,1.613013 0,0 1.1382,0.09415 0.29629,1.333627 -0.8419,1.23946 -17.08161,24.848679 -17.08161,24.848679 l 9.38759,-21.178044 c 0,0 0.36633,-1.141535 -0.80882,-1.480625 -1.17515,-0.3391 -8.47766,-2.033301 -8.47766,-2.033301 0,0 -1.21297,-0.505757 -0.24554,-2.556277 0.96738,-2.05052 7.78981,-14.882742 7.78981,-14.882742 z" transform="matrix(1,0,0,1.0045559,0,-0.97293452)" />
	</g>
</svg>
