<?xml version="1.0" encoding="UTF-8" standalone="no"?>
<svg viewBox="0 0 127 126.989"
  xmlns="http://www.w3.org/2000/svg">
  <defs id="defs1" />
  <g id="layer1">
    <path style="fill:#000000" d="M 9.503519,126.51494 C 6.284202,125.67456 3.565493,123.5858 1.751529,120.55916 0.071238,117.75556 0,116.99269 0,101.80227 0,88.241447 0.001,88.216367 0.595313,87.037827 c 0.640829,-1.2708 2.329087,-2.37116 3.63802,-2.37116 1.118871,0 2.981488,1.10564 3.565822,2.11666 0.514013,0.88935 0.540462,1.48355 0.667512,14.996073 0.128732,13.69148 0.146968,14.08968 0.677806,14.80032 0.300033,0.40166 0.874146,0.97577 1.275806,1.2758 0.710643,0.53084 1.108837,0.54908 14.800318,0.67781 13.512525,0.12705 14.106719,0.1535 14.996068,0.66751 1.011019,0.58434 2.116666,2.44695 2.116666,3.56582 0,1.30894 -1.100362,2.9972 -2.371166,3.63802 -1.180402,0.59525 -1.182175,0.59531 -14.948958,0.58006 -12.130584,-0.0134 -13.97555,-0.0693 -15.509688,-0.4698 z m 77.534306,-0.11026 c -1.2708,-0.64082 -2.37116,-2.32908 -2.37116,-3.63802 0,-1.11887 1.10564,-2.98148 2.11666,-3.56582 0.88935,-0.51401 1.48355,-0.54046 14.996065,-0.66751 13.69148,-0.12873 14.08968,-0.14697 14.80032,-0.67781 0.40166,-0.30003 0.97577,-0.87414 1.27581,-1.2758 0.53083,-0.71064 0.54907,-1.10884 0.6778,-14.80032 0.12705,-13.512523 0.1535,-14.106723 0.66751,-14.996073 0.58434,-1.01102 2.44696,-2.11666 3.56583,-2.11666 1.30893,0 2.99719,1.10036 3.63802,2.37116 0.5943,1.17854 0.59532,1.20362 0.59532,14.764443 0,15.19042 -0.0712,15.95329 -1.75154,18.75689 -1.81396,3.02664 -4.53266,5.1154 -7.75199,5.95578 -1.53414,0.40048 -3.3791,0.45637 -15.50969,0.4698 -13.766775,0.0153 -13.768545,0.0152 -14.948955,-0.58006 z M 19.304499,109.47135 c -0.862421,-0.43489 -1.34096,-0.91343 -1.775854,-1.77585 -0.593953,-1.17785 -0.595312,-1.21111 -0.595312,-14.562173 0,-13.35106 0.0014,-13.38432 0.595312,-14.56216 0.434894,-0.86243 0.913433,-1.34096 1.775854,-1.77586 1.177846,-0.59395 1.211105,-0.59531 14.562166,-0.59531 13.351061,0 13.384321,0.001 14.562166,0.59531 0.862422,0.4349 1.34096,0.91343 1.775854,1.77586 0.593953,1.17784 0.595313,1.2111 0.595313,14.56216 0,13.351063 -0.0014,13.384323 -0.595313,14.562173 -0.434894,0.86242 -0.913432,1.34096 -1.775854,1.77585 -1.177845,0.59395 -1.211105,0.59531 -14.562166,0.59531 -13.351061,0 -13.38432,-0.001 -14.562166,-0.59531 z M 42.333331,93.133327 v -8.46666 H 33.866665 25.399999 V 93.133327 101.6 h 8.466666 8.466666 z m 19.304504,16.338023 c -0.86243,-0.43489 -1.34096,-0.91343 -1.77586,-1.77585 -0.59395,-1.17785 -0.59531,-1.21111 -0.59531,-14.562173 0,-13.35106 10e-4,-13.38432 0.59531,-14.56216 0.64083,-1.27081 2.32909,-2.37117 3.63802,-2.37117 1.30894,0 2.99719,1.10036 3.63802,2.37117 0.59396,1.17784 0.59532,1.2111 0.59532,14.56216 0,13.351063 -10e-4,13.384323 -0.59532,14.562173 -0.64083,1.2708 -2.32908,2.37116 -3.63802,2.37116 -0.37489,0 -1.21287,-0.26789 -1.86216,-0.59531 z m 16.93333,0 c -0.86242,-0.43489 -1.34096,-0.91343 -1.77586,-1.77585 -0.59395,-1.17785 -0.59531,-1.21111 -0.59531,-14.562173 0,-13.35106 0.001,-13.38432 0.59531,-14.56216 0.4349,-0.86243 0.91344,-1.34096 1.77586,-1.77586 1.17784,-0.59395 1.2111,-0.59531 14.56216,-0.59531 13.351055,0 13.384325,0.001 14.562175,0.59531 0.86241,0.4349 1.34096,0.91343 1.77585,1.77586 0.59396,1.17784 0.59531,1.2111 0.59531,14.56216 0,13.351063 -0.001,13.384323 -0.59531,14.562173 -0.43489,0.86242 -0.91344,1.34096 -1.77585,1.77585 -1.17785,0.59395 -1.21111,0.59531 -14.562175,0.59531 -13.35106,0 -13.38432,-0.001 -14.56216,-0.59531 z M 101.6,93.133327 v -8.46666 h -8.466675 -8.46666 V 93.133327 101.6 H 93.133325 101.6 Z M 19.304499,67.138017 c -1.270804,-0.64083 -2.371166,-2.32909 -2.371166,-3.63802 0,-1.30893 1.100362,-2.99719 2.371166,-3.63802 1.169123,-0.58956 1.2895,-0.59531 12.4455,-0.59531 11.155999,0 11.276376,0.006 12.445499,0.59531 1.270804,0.64083 2.371167,2.32909 2.371167,3.63802 0,1.30893 -1.100363,2.99719 -2.371167,3.63802 -1.169123,0.58956 -1.2895,0.59531 -12.445499,0.59531 -11.156,0 -11.276377,-0.006 -12.4455,-0.59531 z m 38.099998,0 c -1.270804,-0.64083 -2.371166,-2.32909 -2.371166,-3.63802 0,-1.30893 1.100362,-2.99719 2.371166,-3.63802 1.002282,-0.50542 1.603078,-0.59531 3.978838,-0.59531 2.37575,0 2.97655,0.0899 3.97883,0.59531 1.2708,0.64083 2.37117,2.32909 2.37117,3.63802 0,1.30893 -1.10037,2.99719 -2.37117,3.63802 -1.00228,0.50542 -1.60308,0.59531 -3.97883,0.59531 -2.37576,0 -2.976556,-0.0899 -3.978838,-0.59531 z m 21.166668,0 c -0.86242,-0.43489 -1.34096,-0.91343 -1.77586,-1.77585 -0.59395,-1.17785 -0.59531,-1.21111 -0.59531,-14.56217 0,-13.35106 0.001,-13.38432 0.59531,-14.56217 0.4349,-0.86242 0.91344,-1.34096 1.77586,-1.77585 1.09788,-0.55363 1.52468,-0.59531 6.0955,-0.59531 4.57081,0 4.99762,0.0417 6.0955,0.59531 1.2708,0.64083 2.37116,2.32909 2.37116,3.63802 0,0.3749 -0.26789,1.21287 -0.59531,1.86217 -0.89385,1.77257 -2.26057,2.37116 -5.41387,2.37116 h -2.45748 v 10.92415 c 0,10.80256 -0.007,10.93728 -0.59531,12.10469 -0.64083,1.2708 -2.32909,2.37116 -3.63803,2.37116 -0.37489,0 -1.21286,-0.26789 -1.86216,-0.59531 z m 25.400005,0 c -1.77258,-0.89385 -2.37118,-2.26058 -2.37118,-5.41387 v -2.45748 h -2.457475 c -3.1533,0 -4.52002,-0.5986 -5.41387,-2.37117 -0.32743,-0.6493 -0.59532,-1.48727 -0.59532,-1.86217 0,-1.30893 1.10037,-2.99719 2.37117,-3.63802 1.09788,-0.55363 1.52469,-0.59531 6.095495,-0.59531 4.57081,0 4.99763,0.0417 6.0955,0.59531 0.86242,0.4349 1.34096,0.91344 1.77585,1.77586 0.55363,1.09788 0.59532,1.52468 0.59532,6.0955 0,4.57081 -0.0417,4.99762 -0.59532,6.0955 -0.64083,1.2708 -2.32908,2.37116 -3.63802,2.37116 -0.37489,0 -1.21287,-0.26789 -1.86215,-0.59531 z M 19.304499,50.204687 c -0.862421,-0.4349 -1.34096,-0.91343 -1.775854,-1.77586 -0.593953,-1.17784 -0.595312,-1.2111 -0.595312,-14.56216 0,-13.35106 0.0014,-13.38432 0.595312,-14.56217 0.434894,-0.86242 0.913433,-1.34096 1.775854,-1.77585 1.177846,-0.59395 1.211105,-0.59531 14.562166,-0.59531 13.351061,0 13.384321,10e-4 14.562166,0.59531 0.862422,0.43489 1.34096,0.91343 1.775854,1.77585 0.593953,1.17785 0.595313,1.21111 0.595313,14.56217 0,13.35106 -0.0014,13.38432 -0.595313,14.56216 -0.434894,0.86243 -0.913432,1.34096 -1.775854,1.77586 -1.177845,0.59395 -1.211105,0.59531 -14.562166,0.59531 -13.351061,0 -13.38432,-10e-4 -14.562166,-0.59531 z m 23.028832,-16.33802 v -8.46667 h -8.466666 -8.466666 v 8.46667 8.46666 h 8.466666 8.466666 z m 19.304504,16.33802 c -0.86243,-0.4349 -1.34096,-0.91343 -1.77586,-1.77586 -0.55363,-1.09788 -0.59531,-1.52468 -0.59531,-6.0955 0,-4.57081 0.0417,-4.99761 0.59531,-6.0955 0.64083,-1.2708 2.32909,-2.37116 3.63802,-2.37116 1.30894,0 2.99719,1.10036 3.63802,2.37116 0.55363,1.09789 0.59532,1.52469 0.59532,6.0955 0,4.57082 -0.0417,4.99762 -0.59532,6.0955 -0.64083,1.27081 -2.32908,2.37117 -3.63802,2.37117 -0.37489,0 -1.21287,-0.26789 -1.86216,-0.59531 z M 2.371167,41.738017 C 1.508745,41.303127 1.030207,40.824587 0.595313,39.962167 7.1e-5,38.781767 2e-6,38.779987 0.015252,25.013207 0.028692,12.882623 0.084572,11.037657 0.485054,9.503519 1.325438,6.284202 3.414197,3.565493 6.440833,1.751529 9.244433,0.071238 10.007311,0 25.197729,0 c 13.560822,0 13.585899,0.001 14.764436,0.595313 1.270804,0.640829 2.371166,2.329087 2.371166,3.63802 0,1.118871 -1.105647,2.981488 -2.116666,3.565822 -0.889349,0.514013 -1.483543,0.540462 -14.996068,0.667512 -13.691481,0.128732 -14.089675,0.146968 -14.800318,0.677806 -0.40166,0.300033 -0.975773,0.874146 -1.275806,1.275806 -0.530838,0.710643 -0.549074,1.108837 -0.677806,14.800318 -0.12705,13.51252 -0.153499,14.10672 -0.667512,14.99607 -0.584334,1.01102 -2.446951,2.11666 -3.565822,2.11666 -0.374893,0 -1.212868,-0.26789 -1.862166,-0.59531 z m 101.600003,0 c -0.86243,-0.43489 -1.34096,-0.91343 -1.77586,-1.77585 -0.57054,-1.13143 -0.59532,-1.45891 -0.59532,-7.87136 v -6.69081 H 82.209185 62.818375 l -1.18054,-0.59531 c -1.27081,-0.64083 -2.37117,-2.32909 -2.37117,-3.63802 0,-1.30893 1.10036,-2.99719 2.37117,-3.63802 l 1.18054,-0.59531 h 21.84829 21.848285 l 1.18054,0.59531 c 0.86242,0.43489 1.34096,0.91343 1.77585,1.77585 0.58312,1.15637 0.59532,1.3679 0.59532,10.32884 0,8.96093 -0.0122,9.17246 -0.59532,10.32883 -0.64083,1.2708 -2.32908,2.37116 -3.63802,2.37116 -0.37489,0 -1.21287,-0.26789 -1.86215,-0.59531 z m 16.93938,0 c -0.69554,-0.35255 -1.39275,-0.97294 -1.70972,-1.52135 -0.51401,-0.88935 -0.54045,-1.48355 -0.6675,-14.99607 -0.12873,-13.691481 -0.14698,-14.089675 -0.6778,-14.800318 -0.30004,-0.40166 -0.87415,-0.975773 -1.27581,-1.275806 C 115.86907,8.613635 115.47088,8.595399 101.7794,8.466667 88.266875,8.339617 87.672675,8.313168 86.783325,7.799155 c -1.01102,-0.584334 -2.11666,-2.446951 -2.11666,-3.565822 0,-1.308933 1.10036,-2.997191 2.37116,-3.63802 C 88.216365,0.001011 88.241445,0 101.80227,0 c 15.19042,0 15.9533,0.07124 18.7569,1.751529 3.02663,1.813964 5.11539,4.532673 5.95578,7.75199 0.40047,1.534138 0.45636,3.379104 0.4698,15.509688 0.0153,13.76678 0.0152,13.76856 -0.58006,14.94896 -0.64083,1.2708 -2.32909,2.37116 -3.63802,2.37116 -0.3749,0 -1.21015,-0.26789 -1.85612,-0.59531 z" id="path1" />
  </g>
</svg>
