<?xml version="1.0" encoding="UTF-8" standalone="no"?>
<svg viewBox="0 0 126.74299 120.019"
  xmlns="http://www.w3.org/2000/svg">
  <defs id="defs1" />
  <g id="layer1">
    <path style="fill:#000000" d="m 41.234468,119.54334 c -6.365894,-2.21404 -17.91875,-9.39388 -19.666991,-12.22259 -1.440869,-2.33137 -1.559283,-5.09457 -0.340153,-7.93744 0.667378,-1.55624 1.35402,-4.81293 1.35402,-6.42201 0,-1.81246 -0.742457,-5.05993 -1.56999,-6.86705 C 18.828078,81.32653 14.314993,77.77979 9.183588,76.79904 5.68694,76.13074 4.981983,75.8857 3.663631,74.88031 0.81768198,72.70996 0.01134998,69.43941 8.1981487e-5,60.02068 -0.01076802,50.94868 1.05491,45.97477 3.462363,43.861 4.75948,42.72212 6.181894,42.13716 8.516338,41.78259 15.111955,40.78081 20.007143,36.6151 22.21798,30.12276 c 0.383942,-1.12748 0.492795,-2.20003 0.483345,-4.76249 -0.01058,-2.86966 -0.106408,-3.58738 -0.72417,-5.42396 -1.373299,-4.08277 -0.804818,-6.96333 1.864411,-9.447209 2.950305,-2.7454356 10.309658,-7.0905886 15.805402,-9.3319206 3.002051,-1.22432796 4.832628,-1.43095296 6.915396,-0.78057196 1.342155,0.419111 1.898085,0.82675396 4.124033,3.02399496 4.388535,4.331939 7.401831,5.687788 12.640776,5.687788 5.23895,0 8.25224,-1.355849 12.64078,-5.687788 2.22595,-2.197241 2.78188,-2.60488396 4.12403,-3.02399496 1.09516,-0.341982 1.98979,-0.441214 3.04271,-0.337493 3.94986,0.389093 14.4623,6.00211596 20.008657,10.68343856 3.44009,2.903556 4.12082,5.490556 2.69336,10.235536 -0.55401,1.84155 -0.70537,2.8942 -0.70537,4.90535 0,4.88382 1.46882,8.43777 4.89174,11.83604 2.53417,2.51592 4.76469,3.73022 8.41565,4.58151 2.72937,0.63641 3.99289,1.23075 5.18464,2.43878 1.24682,1.26385 1.79212,2.47483 2.25381,5.00522 1.05024,5.75607 1.1491,12.31183 0.27389,18.16406 -0.57147,3.82127 -1.01725,5.10597 -2.26269,6.52086 -1.38707,1.57579 -2.94786,2.36105 -5.79246,2.91429 -4.51282,0.87769 -8.42041,3.47763 -10.87277,7.23427 -2.01672,3.08931 -2.48993,4.81741 -2.4821,9.06429 0.006,3.26542 0.0722,3.75348 0.77165,5.68854 0.95351,2.63808 1.00639,4.73503 0.16724,6.63271 -0.71925,1.62654 -1.39975,2.35385 -4.34521,4.64409 -4.180047,3.2502 -11.011297,7.09649 -14.988807,8.43933 -3.12209,1.05405 -6.17822,0.3028 -8.26048,-2.03059 -3.62848,-4.06608 -6.09907,-5.74256 -9.89244,-6.71274 -3.82201,-0.9775 -7.77256,-0.55596 -11.35552,1.2117 -2.213758,1.09216 -4.14798,2.72677 -6.055521,5.11752 -1.854977,2.32487 -3.524414,3.25291 -6.090138,3.38551 -1.404819,0.0726 -2.264671,-0.0407 -3.457356,-0.45549 z M 68.751133,80.52023 c 7.26562,-2.01141 13.11239,-7.89143 15.12189,-15.20788 0.66124,-2.40752 0.65899,-8.18988 -0.004,-10.58334 -2.04296,-7.37401 -7.61147,-13.04093 -14.86817,-15.13093 -3.01847,-0.86934 -8.32843,-0.86841 -11.362109,0.002 -5.815498,1.66856 -10.97844,6.05254 -13.457249,11.42688 -1.287911,2.79233 -1.761623,4.73525 -1.937725,7.94752 -0.5687,10.37358 6.431534,19.49018 16.733953,21.7931 2.31082,0.51654 7.48744,0.38553 9.77352,-0.24735 z" id="path2" />
  </g>
</svg>
